inDegrees=no
num_controls=7
num_derivatives=13
num_iterations=122
num_multipliers=7
num_parameters=0
num_slacks=7
num_states=26
objective=5.464702
objective_accelerations=0.518981
objective_balance=0.012967
objective_effort=0.417921
objective_height=4.444772
objective_ligament=0.070060
solver_duration=1024.329663
status=Solve_Succeeded
success=true
DataType=double
version=3
OpenSimVersion=4.4-2022-07-23-0e9fedc
endheader
time	/jointset/ground_pelvis/pelvis_tilt/value	/jointset/ground_pelvis/pelvis_tx/value	/jointset/ground_pelvis/pelvis_ty/value	/jointset/hip_r/hip_flexion_r/value	/jointset/hip_r/hip_adduction_r/value	/jointset/hip_r/hip_rotation_r/value	/jointset/back/lumbar_extension/value	/jointset/patellofemoral_r/patellar_flexion_r/value	/jointset/knee_r/knee_flexion_r/value	/jointset/knee_r/knee_adduction_r/value	/jointset/knee_r/knee_rotation_r/value	/jointset/ankle_r/ankle_angle_r/value	/jointset/subtalar_r/subtalar_angle_r/value	/jointset/ground_pelvis/pelvis_tilt/speed	/jointset/ground_pelvis/pelvis_tx/speed	/jointset/ground_pelvis/pelvis_ty/speed	/jointset/hip_r/hip_flexion_r/speed	/jointset/hip_r/hip_adduction_r/speed	/jointset/hip_r/hip_rotation_r/speed	/jointset/back/lumbar_extension/speed	/jointset/patellofemoral_r/patellar_flexion_r/speed	/jointset/knee_r/knee_flexion_r/speed	/jointset/knee_r/knee_adduction_r/speed	/jointset/knee_r/knee_rotation_r/speed	/jointset/ankle_r/ankle_angle_r/speed	/jointset/subtalar_r/subtalar_angle_r/speed	/forceset/tau_hip_flexion_r	/forceset/tau_hip_adduction_r	/forceset/tau_hip_rotation_r	/forceset/tau_knee_flexion_r	/forceset/tau_ankle_angle_r	/forceset/tau_subtalar_angle_r	/forceset/tau_lumbar_extension	lambda_cid13_p0	lambda_cid14_p0	lambda_cid14_p1	lambda_cid14_p2	lambda_cid14_p3	lambda_cid14_p4	lambda_cid14_p5	/jointset/ground_pelvis/pelvis_tilt/accel	/jointset/ground_pelvis/pelvis_tx/accel	/jointset/ground_pelvis/pelvis_ty/accel	/jointset/hip_r/hip_flexion_r/accel	/jointset/hip_r/hip_adduction_r/accel	/jointset/hip_r/hip_rotation_r/accel	/jointset/back/lumbar_extension/accel	/jointset/patellofemoral_r/patellar_flexion_r/accel	/jointset/knee_r/knee_flexion_r/accel	/jointset/knee_r/knee_adduction_r/accel	/jointset/knee_r/knee_rotation_r/accel	/jointset/ankle_r/ankle_angle_r/accel	/jointset/subtalar_r/subtalar_angle_r/accel	gamma_cid13_p0	gamma_cid14_p0	gamma_cid14_p1	gamma_cid14_p2	gamma_cid14_p3	gamma_cid14_p4	gamma_cid14_p5
0	-0.001092045547381971	0.1284968480113521	0.934197750770379	0.1934208783645156	-0.2182571409690003	-0.2400259613656143	-0.2903791543005566	0.231179331402163	0.2311793314021609	0.1111062210175817	0.1657555728142084	0.08934340440958972	0.07615655721500851	0	0	0	0	0	0	0	0	0	0	0	0	0	0.1089280153506376	-0.06355924354347885	0.000709295359391467	-0.2528179651700387	0.1389436488425945	-0.06717015663573284	-0.02628788190174801	-29.64185290040396	-0.7865305034665322	-25.21808395372411	-0.2312407281815607	-5.620685530801449	-613.168720601231	56.40338542160207	-1.542229861183706	-1.581026261260413	-0.7781539746831003	8.877139573086357	0.1220167471970899	1.777297151608016	-6.020815763302715	9.44208046631813	9.44208046631806	-2.761656806165027	0.4511722911863843	2.795926524711581	0.969374313173464	3.542152307589845e-08	1.570960929054432e-08	-2.674373363802459e-07	2.138839716539614e-07	1.575389273253149e-08	1.061785109352063e-07	-2.621772143155842e-07
0.01	-0.001163616009252614	0.1284185458532617	0.9341599550623912	0.1938532082260065	-0.2182494023303096	-0.2399374636360132	-0.2906816766362512	0.2316424364221791	0.2316424364221283	0.1109671093447148	0.165775336443	0.08948057568120582	0.07620627201533481	-0.01424565723835378	-0.01560699327178623	-0.007537012459258355	0.08609128867885063	0.001525103500079184	0.01761959425070362	-0.06014203338539236	0.09220453935226708	0.09220453935226711	-0.02765812585788396	0.003932587615127377	0.02728241773099011	0.009871858401269982	0.1040227106888953	-0.07110445989953508	0.001152892779816867	-0.2466409409032636	0.1282781608513813	-0.05775250907379509	-0.02219153345847445	-29.64723649992553	-3.739659727949483	-21.36379786018054	-1.167001290982829	-4.222685738619326	-614.6108240866437	63.92547929325376	-1.355469498413718	-1.542516957621152	-0.7381342750865957	8.41892126145377	0.1643632189448077	1.742340783338297	-5.956532062960761	9.047163888749221	9.047163888749264	-2.743280443537929	0.3613230048061454	2.671628658423508	0.9854097387847772	4.530102825912332e-08	9.599318835945194e-09	-3.191311002755525e-07	2.496806134133653e-07	2.752862202950787e-08	2.346462870894917e-08	-3.058346241350797e-07
0.02	-0.001375590212164967	0.1281857775429566	0.9340474573511026	0.1951352105235331	-0.2182270914431227	-0.2396751599196058	-0.2915747462931604	0.2330150914794674	0.2330150914794693	0.1105563384196591	0.1658338301497072	0.08988601698235568	0.07635256902670993	-0.02808074820678415	-0.03089323044294566	-0.01494040066016393	0.169934487204476	0.002914449701405022	0.03476119736286808	-0.1181094642429037	0.1819100074672621	0.1819100074672625	-0.05433185043328109	0.007746015555454046	0.05365400590720963	0.01931644220977965	0.09911740602731996	-0.07864967625555024	0.001596490200890115	-0.2404639166364527	0.1176126728601981	-0.04833486151180732	-0.01809518501509028	-29.66294933311723	-6.619370106750956	-17.51186679049122	-2.085012391621508	-2.802366317628432	-614.883075407516	71.18655396483214	-1.460116607198924	-1.516875041135124	-0.7514291230125406	8.427521542441296	0.0948652874464157	1.681698923900191	-5.585895257726438	8.942266218863741	8.942266218863743	-2.564776549667651	0.4273403562262506	2.613760613757389	0.883919394621367	5.518053344234818e-08	3.489028381346065e-09	-3.70824864170859e-07	2.854772551727692e-07	3.930335132648424e-08	-5.924925351730796e-08	-3.494920339545751e-07
0.03	-0.00172435422649483	0.1278022082555157	0.9338613434912868	0.1972444059323205	-0.2181916549290577	-0.2392442285790635	-0.2930358355451864	0.2352723565906327	0.2352723565906512	0.1098839695510175	0.1659300304122053	0.09055111183401172	0.0765912502498001	-0.04161759472197336	-0.04572068756927621	-0.02227882186830019	0.2514866809970031	0.004157361815432698	0.05133904663952676	-0.1737060904712426	0.2691159668429832	0.2691159668429828	-0.07998365493559514	0.01144668615106523	0.07926489836191536	0.02837603062649134	0.0949174278289138	-0.07423001662399441	0.001768049530282886	-0.237463277975381	0.1148177352666998	-0.04935793546634799	-0.014358520175015	-29.68834596286199	-7.582226227923828	-18.12300438836323	-1.989605120419366	-2.854236479920433	-615.4146417869129	69.12669380994417	-1.292296281996431	-1.450682218922289	-0.7245283885482551	7.956383068318868	0.1366819451069191	1.632981757172648	-5.486201951610376	8.545692532105477	8.54569253210537	-2.541671590219757	0.3343835690999734	2.519749606769436	0.9103887865996292	5.539697910326108e-08	-6.21159815572678e-09	-3.532961490009941e-07	2.886675915871569e-07	4.703612211128389e-08	-1.457755508992266e-07	-3.473821341696443e-07
